solid disk
  facet normal 0 0 -1
    outer loop
      vertex 20 0 -4
      vertex 0 0 -4
      vertex 19.6157056 3.90180644 -4
    endloop
  endfacet
  facet normal 0.995184727 0.0980171403 0
    outer loop
      vertex 20 0 -4
      vertex 19.6157056 3.90180644 -4
      vertex 20 0 4
    endloop
  endfacet
  facet normal 0.995184727 0.0980171403 -0
    outer loop
      vertex 20 0 4
      vertex 19.6157056 3.90180644 -4
      vertex 19.6157056 3.90180644 4
    endloop
  endfacet
  facet normal 0 0 1
    outer loop
      vertex 20 0 4
      vertex 19.6157056 3.90180644 4
      vertex 0 0 4
    endloop
  endfacet
  facet normal -0 0 -1
    outer loop
      vertex 19.6157056 3.90180644 -4
      vertex 0 0 -4
      vertex 18.4775907 7.65366865 -4
    endloop
  endfacet
  facet normal 0.956940336 0.290284677 0
    outer loop
      vertex 19.6157056 3.90180644 -4
      vertex 18.4775907 7.65366865 -4
      vertex 19.6157056 3.90180644 4
    endloop
  endfacet
  facet normal 0.956940336 0.290284677 -0
    outer loop
      vertex 19.6157056 3.90180644 4
      vertex 18.4775907 7.65366865 -4
      vertex 18.4775907 7.65366865 4
    endloop
  endfacet
  facet normal 0 0 1
    outer loop
      vertex 19.6157056 3.90180644 4
      vertex 18.4775907 7.65366865 4
      vertex 0 0 4
    endloop
  endfacet
  facet normal -0 0 -1
    outer loop
      vertex 18.4775907 7.65366865 -4
      vertex 0 0 -4
      vertex 16.6293922 11.1114047 -4
    endloop
  endfacet
  facet normal 0.881921264 0.471396737 0
    outer loop
      vertex 18.4775907 7.65366865 -4
      vertex 16.6293922 11.1114047 -4
      vertex 18.4775907 7.65366865 4
    endloop
  endfacet
  facet normal 0.881921264 0.471396737 -0
    outer loop
      vertex 18.4775907 7.65366865 4
      vertex 16.6293922 11.1114047 -4
      vertex 16.6293922 11.1114047 4
    endloop
  endfacet
  facet normal 0 0 1
    outer loop
      vertex 18.4775907 7.65366865 4
      vertex 16.6293922 11.1114047 4
      vertex 0 0 4
    endloop
  endfacet
  facet normal -0 0 -1
    outer loop
      vertex 16.6293922 11.1114047 -4
      vertex 0 0 -4
      vertex 14.1421356 14.1421356 -4
    endloop
  endfacet
  facet normal 0.773010453 0.634393284 0
    outer loop
      vertex 16.6293922 11.1114047 -4
      vertex 14.1421356 14.1421356 -4
      vertex 16.6293922 11.1114047 4
    endloop
  endfacet
  facet normal 0.773010453 0.634393284 -0
    outer loop
      vertex 16.6293922 11.1114047 4
      vertex 14.1421356 14.1421356 -4
      vertex 14.1421356 14.1421356 4
    endloop
  endfacet
  facet normal 0 0 1
    outer loop
      vertex 16.6293922 11.1114047 4
      vertex 14.1421356 14.1421356 4
      vertex 0 0 4
    endloop
  endfacet
  facet normal -0 0 -1
    outer loop
      vertex 14.1421356 14.1421356 -4
      vertex 0 0 -4
      vertex 11.1114047 16.6293922 -4
    endloop
  endfacet
  facet normal 0.634393284 0.773010453 0
    outer loop
      vertex 14.1421356 14.1421356 -4
      vertex 11.1114047 16.6293922 -4
      vertex 14.1421356 14.1421356 4
    endloop
  endfacet
  facet normal 0.634393284 0.773010453 -0
    outer loop
      vertex 14.1421356 14.1421356 4
      vertex 11.1114047 16.6293922 -4
      vertex 11.1114047 16.6293922 4
    endloop
  endfacet
  facet normal 0 0 1
    outer loop
      vertex 14.1421356 14.1421356 4
      vertex 11.1114047 16.6293922 4
      vertex 0 0 4
    endloop
  endfacet
  facet normal -0 0 -1
    outer loop
      vertex 11.1114047 16.6293922 -4
      vertex 0 0 -4
      vertex 7.65366865 18.4775907 -4
    endloop
  endfacet
  facet normal 0.471396737 0.881921264 0
    outer loop
      vertex 11.1114047 16.6293922 -4
      vertex 7.65366865 18.4775907 -4
      vertex 11.1114047 16.6293922 4
    endloop
  endfacet
  facet normal 0.471396737 0.881921264 -0
    outer loop
      vertex 11.1114047 16.6293922 4
      vertex 7.65366865 18.4775907 -4
      vertex 7.65366865 18.4775907 4
    endloop
  endfacet
  facet normal 0 0 1
    outer loop
      vertex 11.1114047 16.6293922 4
      vertex 7.65366865 18.4775907 4
      vertex 0 0 4
    endloop
  endfacet
  facet normal -0 0 -1
    outer loop
      vertex 7.65366865 18.4775907 -4
      vertex 0 0 -4
      vertex 3.90180644 19.6157056 -4
    endloop
  endfacet
  facet normal 0.290284677 0.956940336 0
    outer loop
      vertex 7.65366865 18.4775907 -4
      vertex 3.90180644 19.6157056 -4
      vertex 7.65366865 18.4775907 4
    endloop
  endfacet
  facet normal 0.290284677 0.956940336 -0
    outer loop
      vertex 7.65366865 18.4775907 4
      vertex 3.90180644 19.6157056 -4
      vertex 3.90180644 19.6157056 4
    endloop
  endfacet
  facet normal 0 0 1
    outer loop
      vertex 7.65366865 18.4775907 4
      vertex 3.90180644 19.6157056 4
      vertex 0 0 4
    endloop
  endfacet
  facet normal -0 0 -1
    outer loop
      vertex 3.90180644 19.6157056 -4
      vertex 0 0 -4
      vertex 1.2246468e-15 20 -4
    endloop
  endfacet
  facet normal 0.0980171403 0.995184727 0
    outer loop
      vertex 3.90180644 19.6157056 -4
      vertex 1.2246468e-15 20 -4
      vertex 3.90180644 19.6157056 4
    endloop
  endfacet
  facet normal 0.0980171403 0.995184727 -0
    outer loop
      vertex 3.90180644 19.6157056 4
      vertex 1.2246468e-15 20 -4
      vertex 1.2246468e-15 20 4
    endloop
  endfacet
  facet normal 0 0 1
    outer loop
      vertex 3.90180644 19.6157056 4
      vertex 1.2246468e-15 20 4
      vertex 0 0 4
    endloop
  endfacet
  facet normal -0 0 -1
    outer loop
      vertex 1.2246468e-15 20 -4
      vertex 0 0 -4
      vertex -3.90180644 19.6157056 -4
    endloop
  endfacet
  facet normal -0.0980171403 0.995184727 0
    outer loop
      vertex 1.2246468e-15 20 -4
      vertex -3.90180644 19.6157056 -4
      vertex 1.2246468e-15 20 4
    endloop
  endfacet
  facet normal -0.0980171403 0.995184727 0
    outer loop
      vertex 1.2246468e-15 20 4
      vertex -3.90180644 19.6157056 -4
      vertex -3.90180644 19.6157056 4
    endloop
  endfacet
  facet normal 0 0 1
    outer loop
      vertex 1.2246468e-15 20 4
      vertex -3.90180644 19.6157056 4
      vertex 0 0 4
    endloop
  endfacet
  facet normal -0 -0 -1
    outer loop
      vertex -3.90180644 19.6157056 -4
      vertex 0 0 -4
      vertex -7.65366865 18.4775907 -4
    endloop
  endfacet
  facet normal -0.290284677 0.956940336 0
    outer loop
      vertex -3.90180644 19.6157056 -4
      vertex -7.65366865 18.4775907 -4
      vertex -3.90180644 19.6157056 4
    endloop
  endfacet
  facet normal -0.290284677 0.956940336 0
    outer loop
      vertex -3.90180644 19.6157056 4
      vertex -7.65366865 18.4775907 -4
      vertex -7.65366865 18.4775907 4
    endloop
  endfacet
  facet normal 0 0 1
    outer loop
      vertex -3.90180644 19.6157056 4
      vertex -7.65366865 18.4775907 4
      vertex 0 0 4
    endloop
  endfacet
  facet normal -0 -0 -1
    outer loop
      vertex -7.65366865 18.4775907 -4
      vertex 0 0 -4
      vertex -11.1114047 16.6293922 -4
    endloop
  endfacet
  facet normal -0.471396737 0.881921264 0
    outer loop
      vertex -7.65366865 18.4775907 -4
      vertex -11.1114047 16.6293922 -4
      vertex -7.65366865 18.4775907 4
    endloop
  endfacet
  facet normal -0.471396737 0.881921264 0
    outer loop
      vertex -7.65366865 18.4775907 4
      vertex -11.1114047 16.6293922 -4
      vertex -11.1114047 16.6293922 4
    endloop
  endfacet
  facet normal 0 0 1
    outer loop
      vertex -7.65366865 18.4775907 4
      vertex -11.1114047 16.6293922 4
      vertex 0 0 4
    endloop
  endfacet
  facet normal -0 -0 -1
    outer loop
      vertex -11.1114047 16.6293922 -4
      vertex 0 0 -4
      vertex -14.1421356 14.1421356 -4
    endloop
  endfacet
  facet normal -0.634393284 0.773010453 0
    outer loop
      vertex -11.1114047 16.6293922 -4
      vertex -14.1421356 14.1421356 -4
      vertex -11.1114047 16.6293922 4
    endloop
  endfacet
  facet normal -0.634393284 0.773010453 0
    outer loop
      vertex -11.1114047 16.6293922 4
      vertex -14.1421356 14.1421356 -4
      vertex -14.1421356 14.1421356 4
    endloop
  endfacet
  facet normal 0 0 1
    outer loop
      vertex -11.1114047 16.6293922 4
      vertex -14.1421356 14.1421356 4
      vertex 0 0 4
    endloop
  endfacet
  facet normal -0 -0 -1
    outer loop
      vertex -14.1421356 14.1421356 -4
      vertex 0 0 -4
      vertex -16.6293922 11.1114047 -4
    endloop
  endfacet
  facet normal -0.773010453 0.634393284 0
    outer loop
      vertex -14.1421356 14.1421356 -4
      vertex -16.6293922 11.1114047 -4
      vertex -14.1421356 14.1421356 4
    endloop
  endfacet
  facet normal -0.773010453 0.634393284 0
    outer loop
      vertex -14.1421356 14.1421356 4
      vertex -16.6293922 11.1114047 -4
      vertex -16.6293922 11.1114047 4
    endloop
  endfacet
  facet normal 0 0 1
    outer loop
      vertex -14.1421356 14.1421356 4
      vertex -16.6293922 11.1114047 4
      vertex 0 0 4
    endloop
  endfacet
  facet normal -0 -0 -1
    outer loop
      vertex -16.6293922 11.1114047 -4
      vertex 0 0 -4
      vertex -18.4775907 7.65366865 -4
    endloop
  endfacet
  facet normal -0.881921264 0.471396737 0
    outer loop
      vertex -16.6293922 11.1114047 -4
      vertex -18.4775907 7.65366865 -4
      vertex -16.6293922 11.1114047 4
    endloop
  endfacet
  facet normal -0.881921264 0.471396737 0
    outer loop
      vertex -16.6293922 11.1114047 4
      vertex -18.4775907 7.65366865 -4
      vertex -18.4775907 7.65366865 4
    endloop
  endfacet
  facet normal 0 0 1
    outer loop
      vertex -16.6293922 11.1114047 4
      vertex -18.4775907 7.65366865 4
      vertex 0 0 4
    endloop
  endfacet
  facet normal -0 -0 -1
    outer loop
      vertex -18.4775907 7.65366865 -4
      vertex 0 0 -4
      vertex -19.6157056 3.90180644 -4
    endloop
  endfacet
  facet normal -0.956940336 0.290284677 0
    outer loop
      vertex -18.4775907 7.65366865 -4
      vertex -19.6157056 3.90180644 -4
      vertex -18.4775907 7.65366865 4
    endloop
  endfacet
  facet normal -0.956940336 0.290284677 0
    outer loop
      vertex -18.4775907 7.65366865 4
      vertex -19.6157056 3.90180644 -4
      vertex -19.6157056 3.90180644 4
    endloop
  endfacet
  facet normal 0 0 1
    outer loop
      vertex -18.4775907 7.65366865 4
      vertex -19.6157056 3.90180644 4
      vertex 0 0 4
    endloop
  endfacet
  facet normal -0 -0 -1
    outer loop
      vertex -19.6157056 3.90180644 -4
      vertex 0 0 -4
      vertex -20 2.4492936e-15 -4
    endloop
  endfacet
  facet normal -0.995184727 0.0980171403 0
    outer loop
      vertex -19.6157056 3.90180644 -4
      vertex -20 2.4492936e-15 -4
      vertex -19.6157056 3.90180644 4
    endloop
  endfacet
  facet normal -0.995184727 0.0980171403 0
    outer loop
      vertex -19.6157056 3.90180644 4
      vertex -20 2.4492936e-15 -4
      vertex -20 2.4492936e-15 4
    endloop
  endfacet
  facet normal 0 0 1
    outer loop
      vertex -19.6157056 3.90180644 4
      vertex -20 2.4492936e-15 4
      vertex 0 0 4
    endloop
  endfacet
  facet normal 0 -0 -1
    outer loop
      vertex -20 2.4492936e-15 -4
      vertex 0 0 -4
      vertex -19.6157056 -3.90180644 -4
    endloop
  endfacet
  facet normal -0.995184727 -0.0980171403 0
    outer loop
      vertex -20 2.4492936e-15 -4
      vertex -19.6157056 -3.90180644 -4
      vertex -20 2.4492936e-15 4
    endloop
  endfacet
  facet normal -0.995184727 -0.0980171403 0
    outer loop
      vertex -20 2.4492936e-15 4
      vertex -19.6157056 -3.90180644 -4
      vertex -19.6157056 -3.90180644 4
    endloop
  endfacet
  facet normal -0 0 1
    outer loop
      vertex -20 2.4492936e-15 4
      vertex -19.6157056 -3.90180644 4
      vertex 0 0 4
    endloop
  endfacet
  facet normal 0 -0 -1
    outer loop
      vertex -19.6157056 -3.90180644 -4
      vertex 0 0 -4
      vertex -18.4775907 -7.65366865 -4
    endloop
  endfacet
  facet normal -0.956940336 -0.290284677 0
    outer loop
      vertex -19.6157056 -3.90180644 -4
      vertex -18.4775907 -7.65366865 -4
      vertex -19.6157056 -3.90180644 4
    endloop
  endfacet
  facet normal -0.956940336 -0.290284677 0
    outer loop
      vertex -19.6157056 -3.90180644 4
      vertex -18.4775907 -7.65366865 -4
      vertex -18.4775907 -7.65366865 4
    endloop
  endfacet
  facet normal -0 0 1
    outer loop
      vertex -19.6157056 -3.90180644 4
      vertex -18.4775907 -7.65366865 4
      vertex 0 0 4
    endloop
  endfacet
  facet normal 0 -0 -1
    outer loop
      vertex -18.4775907 -7.65366865 -4
      vertex 0 0 -4
      vertex -16.6293922 -11.1114047 -4
    endloop
  endfacet
  facet normal -0.881921264 -0.471396737 0
    outer loop
      vertex -18.4775907 -7.65366865 -4
      vertex -16.6293922 -11.1114047 -4
      vertex -18.4775907 -7.65366865 4
    endloop
  endfacet
  facet normal -0.881921264 -0.471396737 0
    outer loop
      vertex -18.4775907 -7.65366865 4
      vertex -16.6293922 -11.1114047 -4
      vertex -16.6293922 -11.1114047 4
    endloop
  endfacet
  facet normal -0 0 1
    outer loop
      vertex -18.4775907 -7.65366865 4
      vertex -16.6293922 -11.1114047 4
      vertex 0 0 4
    endloop
  endfacet
  facet normal 0 -0 -1
    outer loop
      vertex -16.6293922 -11.1114047 -4
      vertex 0 0 -4
      vertex -14.1421356 -14.1421356 -4
    endloop
  endfacet
  facet normal -0.773010453 -0.634393284 0
    outer loop
      vertex -16.6293922 -11.1114047 -4
      vertex -14.1421356 -14.1421356 -4
      vertex -16.6293922 -11.1114047 4
    endloop
  endfacet
  facet normal -0.773010453 -0.634393284 0
    outer loop
      vertex -16.6293922 -11.1114047 4
      vertex -14.1421356 -14.1421356 -4
      vertex -14.1421356 -14.1421356 4
    endloop
  endfacet
  facet normal -0 0 1
    outer loop
      vertex -16.6293922 -11.1114047 4
      vertex -14.1421356 -14.1421356 4
      vertex 0 0 4
    endloop
  endfacet
  facet normal 0 -0 -1
    outer loop
      vertex -14.1421356 -14.1421356 -4
      vertex 0 0 -4
      vertex -11.1114047 -16.6293922 -4
    endloop
  endfacet
  facet normal -0.634393284 -0.773010453 0
    outer loop
      vertex -14.1421356 -14.1421356 -4
      vertex -11.1114047 -16.6293922 -4
      vertex -14.1421356 -14.1421356 4
    endloop
  endfacet
  facet normal -0.634393284 -0.773010453 0
    outer loop
      vertex -14.1421356 -14.1421356 4
      vertex -11.1114047 -16.6293922 -4
      vertex -11.1114047 -16.6293922 4
    endloop
  endfacet
  facet normal -0 0 1
    outer loop
      vertex -14.1421356 -14.1421356 4
      vertex -11.1114047 -16.6293922 4
      vertex 0 0 4
    endloop
  endfacet
  facet normal 0 -0 -1
    outer loop
      vertex -11.1114047 -16.6293922 -4
      vertex 0 0 -4
      vertex -7.65366865 -18.4775907 -4
    endloop
  endfacet
  facet normal -0.471396737 -0.881921264 0
    outer loop
      vertex -11.1114047 -16.6293922 -4
      vertex -7.65366865 -18.4775907 -4
      vertex -11.1114047 -16.6293922 4
    endloop
  endfacet
  facet normal -0.471396737 -0.881921264 0
    outer loop
      vertex -11.1114047 -16.6293922 4
      vertex -7.65366865 -18.4775907 -4
      vertex -7.65366865 -18.4775907 4
    endloop
  endfacet
  facet normal -0 0 1
    outer loop
      vertex -11.1114047 -16.6293922 4
      vertex -7.65366865 -18.4775907 4
      vertex 0 0 4
    endloop
  endfacet
  facet normal 0 -0 -1
    outer loop
      vertex -7.65366865 -18.4775907 -4
      vertex 0 0 -4
      vertex -3.90180644 -19.6157056 -4
    endloop
  endfacet
  facet normal -0.290284677 -0.956940336 0
    outer loop
      vertex -7.65366865 -18.4775907 -4
      vertex -3.90180644 -19.6157056 -4
      vertex -7.65366865 -18.4775907 4
    endloop
  endfacet
  facet normal -0.290284677 -0.956940336 0
    outer loop
      vertex -7.65366865 -18.4775907 4
      vertex -3.90180644 -19.6157056 -4
      vertex -3.90180644 -19.6157056 4
    endloop
  endfacet
  facet normal -0 0 1
    outer loop
      vertex -7.65366865 -18.4775907 4
      vertex -3.90180644 -19.6157056 4
      vertex 0 0 4
    endloop
  endfacet
  facet normal 0 -0 -1
    outer loop
      vertex -3.90180644 -19.6157056 -4
      vertex 0 0 -4
      vertex -3.6739404e-15 -20 -4
    endloop
  endfacet
  facet normal -0.0980171403 -0.995184727 0
    outer loop
      vertex -3.90180644 -19.6157056 -4
      vertex -3.6739404e-15 -20 -4
      vertex -3.90180644 -19.6157056 4
    endloop
  endfacet
  facet normal -0.0980171403 -0.995184727 0
    outer loop
      vertex -3.90180644 -19.6157056 4
      vertex -3.6739404e-15 -20 -4
      vertex -3.6739404e-15 -20 4
    endloop
  endfacet
  facet normal -0 0 1
    outer loop
      vertex -3.90180644 -19.6157056 4
      vertex -3.6739404e-15 -20 4
      vertex 0 0 4
    endloop
  endfacet
  facet normal 0 0 -1
    outer loop
      vertex -3.6739404e-15 -20 -4
      vertex 0 0 -4
      vertex 3.90180644 -19.6157056 -4
    endloop
  endfacet
  facet normal 0.0980171403 -0.995184727 0
    outer loop
      vertex -3.6739404e-15 -20 -4
      vertex 3.90180644 -19.6157056 -4
      vertex -3.6739404e-15 -20 4
    endloop
  endfacet
  facet normal 0.0980171403 -0.995184727 0
    outer loop
      vertex -3.6739404e-15 -20 4
      vertex 3.90180644 -19.6157056 -4
      vertex 3.90180644 -19.6157056 4
    endloop
  endfacet
  facet normal 0 -0 1
    outer loop
      vertex -3.6739404e-15 -20 4
      vertex 3.90180644 -19.6157056 4
      vertex 0 0 4
    endloop
  endfacet
  facet normal 0 0 -1
    outer loop
      vertex 3.90180644 -19.6157056 -4
      vertex 0 0 -4
      vertex 7.65366865 -18.4775907 -4
    endloop
  endfacet
  facet normal 0.290284677 -0.956940336 0
    outer loop
      vertex 3.90180644 -19.6157056 -4
      vertex 7.65366865 -18.4775907 -4
      vertex 3.90180644 -19.6157056 4
    endloop
  endfacet
  facet normal 0.290284677 -0.956940336 0
    outer loop
      vertex 3.90180644 -19.6157056 4
      vertex 7.65366865 -18.4775907 -4
      vertex 7.65366865 -18.4775907 4
    endloop
  endfacet
  facet normal 0 -0 1
    outer loop
      vertex 3.90180644 -19.6157056 4
      vertex 7.65366865 -18.4775907 4
      vertex 0 0 4
    endloop
  endfacet
  facet normal 0 0 -1
    outer loop
      vertex 7.65366865 -18.4775907 -4
      vertex 0 0 -4
      vertex 11.1114047 -16.6293922 -4
    endloop
  endfacet
  facet normal 0.471396737 -0.881921264 0
    outer loop
      vertex 7.65366865 -18.4775907 -4
      vertex 11.1114047 -16.6293922 -4
      vertex 7.65366865 -18.4775907 4
    endloop
  endfacet
  facet normal 0.471396737 -0.881921264 0
    outer loop
      vertex 7.65366865 -18.4775907 4
      vertex 11.1114047 -16.6293922 -4
      vertex 11.1114047 -16.6293922 4
    endloop
  endfacet
  facet normal 0 -0 1
    outer loop
      vertex 7.65366865 -18.4775907 4
      vertex 11.1114047 -16.6293922 4
      vertex 0 0 4
    endloop
  endfacet
  facet normal 0 0 -1
    outer loop
      vertex 11.1114047 -16.6293922 -4
      vertex 0 0 -4
      vertex 14.1421356 -14.1421356 -4
    endloop
  endfacet
  facet normal 0.634393284 -0.773010453 0
    outer loop
      vertex 11.1114047 -16.6293922 -4
      vertex 14.1421356 -14.1421356 -4
      vertex 11.1114047 -16.6293922 4
    endloop
  endfacet
  facet normal 0.634393284 -0.773010453 0
    outer loop
      vertex 11.1114047 -16.6293922 4
      vertex 14.1421356 -14.1421356 -4
      vertex 14.1421356 -14.1421356 4
    endloop
  endfacet
  facet normal 0 -0 1
    outer loop
      vertex 11.1114047 -16.6293922 4
      vertex 14.1421356 -14.1421356 4
      vertex 0 0 4
    endloop
  endfacet
  facet normal 0 0 -1
    outer loop
      vertex 14.1421356 -14.1421356 -4
      vertex 0 0 -4
      vertex 16.6293922 -11.1114047 -4
    endloop
  endfacet
  facet normal 0.773010453 -0.634393284 0
    outer loop
      vertex 14.1421356 -14.1421356 -4
      vertex 16.6293922 -11.1114047 -4
      vertex 14.1421356 -14.1421356 4
    endloop
  endfacet
  facet normal 0.773010453 -0.634393284 0
    outer loop
      vertex 14.1421356 -14.1421356 4
      vertex 16.6293922 -11.1114047 -4
      vertex 16.6293922 -11.1114047 4
    endloop
  endfacet
  facet normal 0 -0 1
    outer loop
      vertex 14.1421356 -14.1421356 4
      vertex 16.6293922 -11.1114047 4
      vertex 0 0 4
    endloop
  endfacet
  facet normal 0 0 -1
    outer loop
      vertex 16.6293922 -11.1114047 -4
      vertex 0 0 -4
      vertex 18.4775907 -7.65366865 -4
    endloop
  endfacet
  facet normal 0.881921264 -0.471396737 0
    outer loop
      vertex 16.6293922 -11.1114047 -4
      vertex 18.4775907 -7.65366865 -4
      vertex 16.6293922 -11.1114047 4
    endloop
  endfacet
  facet normal 0.881921264 -0.471396737 0
    outer loop
      vertex 16.6293922 -11.1114047 4
      vertex 18.4775907 -7.65366865 -4
      vertex 18.4775907 -7.65366865 4
    endloop
  endfacet
  facet normal 0 -0 1
    outer loop
      vertex 16.6293922 -11.1114047 4
      vertex 18.4775907 -7.65366865 4
      vertex 0 0 4
    endloop
  endfacet
  facet normal 0 0 -1
    outer loop
      vertex 18.4775907 -7.65366865 -4
      vertex 0 0 -4
      vertex 19.6157056 -3.90180644 -4
    endloop
  endfacet
  facet normal 0.956940336 -0.290284677 0
    outer loop
      vertex 18.4775907 -7.65366865 -4
      vertex 19.6157056 -3.90180644 -4
      vertex 18.4775907 -7.65366865 4
    endloop
  endfacet
  facet normal 0.956940336 -0.290284677 0
    outer loop
      vertex 18.4775907 -7.65366865 4
      vertex 19.6157056 -3.90180644 -4
      vertex 19.6157056 -3.90180644 4
    endloop
  endfacet
  facet normal 0 -0 1
    outer loop
      vertex 18.4775907 -7.65366865 4
      vertex 19.6157056 -3.90180644 4
      vertex 0 0 4
    endloop
  endfacet
  facet normal 0 0 -1
    outer loop
      vertex 19.6157056 -3.90180644 -4
      vertex 0 0 -4
      vertex 20 0 -4
    endloop
  endfacet
  facet normal 0.995184727 -0.0980171403 0
    outer loop
      vertex 19.6157056 -3.90180644 -4
      vertex 20 0 -4
      vertex 19.6157056 -3.90180644 4
    endloop
  endfacet
  facet normal 0.995184727 -0.0980171403 0
    outer loop
      vertex 19.6157056 -3.90180644 4
      vertex 20 0 -4
      vertex 20 0 4
    endloop
  endfacet
  facet normal 0 -0 1
    outer loop
      vertex 19.6157056 -3.90180644 4
      vertex 20 0 4
      vertex 0 0 4
    endloop
  endfacet
endsolid disk
